<svg xmlns="http://www.w3.org/2000/svg" width="780" height="225" viewBox="0 0 780 225" role="img" aria-labelledby="title description">
<title id="title">SemantIQ — compact brain mark</title>
<desc id="description">Violet, cyan and teal brain-inspired artwork beside the SemantIQ name.</desc>
<defs>
  <linearGradient id="brain" x1="0" y1="0" x2="0.9" y2="1">
    <stop offset="0" stop-color="#a78bfa"/><stop offset="0.52" stop-color="#38bdf8"/><stop offset="1" stop-color="#2dd4bf"/>
  </linearGradient>
  <linearGradient id="surface" x1="0" y1="0" x2="1" y2="1"><stop stop-color="#101b32"/><stop offset="1" stop-color="#080f20"/></linearGradient>
</defs>
<rect x="1" y="1" width="778" height="223" rx="19" fill="url(#surface)" stroke="#284158" stroke-width="2"/>
<g fill="url(#brain)">
<rect x="164" y="19.0" width="12.0" height="6.5" opacity="0.37" />
<rect x="176" y="19.0" width="36.0" height="6.5" opacity="0.56" />
<rect x="212" y="19.0" width="6.0" height="6.5" opacity="0.81" />
<rect x="218" y="19.0" width="6.0" height="6.5" opacity="0.56" />
<rect x="224" y="19.0" width="6.0" height="6.5" opacity="0.81" />
<rect x="230" y="19.0" width="6.0" height="6.5" opacity="0.56" />
<rect x="236" y="19.0" width="12.0" height="6.5" opacity="0.37" />
<rect x="248" y="19.0" width="24.0" height="6.5" opacity="0.56" />
<rect x="272" y="19.0" width="18.0" height="6.5" opacity="0.37" />
<rect x="122" y="25.6" width="18.0" height="6.5" opacity="0.37" />
<rect x="140" y="25.6" width="6.0" height="6.5" opacity="0.56" />
<rect x="146" y="25.6" width="6.0" height="6.5" opacity="0.81" />
<rect x="152" y="25.6" width="6.0" height="6.5" opacity="0.56" />
<rect x="158" y="25.6" width="78.0" height="6.5" opacity="0.81" />
<rect x="236" y="25.6" width="6.0" height="6.5" opacity="1" />
<rect x="242" y="25.6" width="18.0" height="6.5" opacity="0.81" />
<rect x="260" y="25.6" width="6.0" height="6.5" opacity="1" />
<rect x="266" y="25.6" width="24.0" height="6.5" opacity="0.81" />
<rect x="290" y="25.6" width="6.0" height="6.5" opacity="0.56" />
<rect x="296" y="25.6" width="6.0" height="6.5" opacity="0.81" />
<rect x="302" y="25.6" width="6.0" height="6.5" opacity="0.56" />
<rect x="308" y="25.6" width="6.0" height="6.5" opacity="0.37" />
<rect x="104" y="32.2" width="6.0" height="6.5" opacity="0.37" />
<rect x="110" y="32.2" width="6.0" height="6.5" opacity="0.56" />
<rect x="116" y="32.2" width="60.0" height="6.5" opacity="0.81" />
<rect x="176" y="32.2" width="12.0" height="6.5" opacity="1" />
<rect x="188" y="32.2" width="18.0" height="6.5" opacity="0.81" />
<rect x="206" y="32.2" width="6.0" height="6.5" opacity="0.56" />
<rect x="212" y="32.2" width="6.0" height="6.5" opacity="0.81" />
<rect x="218" y="32.2" width="6.0" height="6.5" opacity="1" />
<rect x="224" y="32.2" width="30.0" height="6.5" opacity="0.81" />
<rect x="254" y="32.2" width="6.0" height="6.5" opacity="1" />
<rect x="260" y="32.2" width="12.0" height="6.5" opacity="0.81" />
<rect x="272" y="32.2" width="6.0" height="6.5" opacity="0.56" />
<rect x="278" y="32.2" width="6.0" height="6.5" opacity="0.81" />
<rect x="284" y="32.2" width="6.0" height="6.5" opacity="1" />
<rect x="290" y="32.2" width="24.0" height="6.5" opacity="0.81" />
<rect x="314" y="32.2" width="6.0" height="6.5" opacity="0.56" />
<rect x="320" y="32.2" width="18.0" height="6.5" opacity="0.37" />
<rect x="92" y="38.8" width="6.0" height="6.5" opacity="0.37" />
<rect x="98" y="38.8" width="18.0" height="6.5" opacity="0.81" />
<rect x="116" y="38.8" width="6.0" height="6.5" opacity="1" />
<rect x="122" y="38.8" width="42.0" height="6.5" opacity="0.81" />
<rect x="164" y="38.8" width="6.0" height="6.5" opacity="0.56" />
<rect x="170" y="38.8" width="24.0" height="6.5" opacity="0.81" />
<rect x="194" y="38.8" width="6.0" height="6.5" opacity="0.56" />
<rect x="200" y="38.8" width="6.0" height="6.5" opacity="0.81" />
<rect x="206" y="38.8" width="6.0" height="6.5" opacity="1" />
<rect x="212" y="38.8" width="42.0" height="6.5" opacity="0.81" />
<rect x="254" y="38.8" width="6.0" height="6.5" opacity="1" />
<rect x="260" y="38.8" width="42.0" height="6.5" opacity="0.81" />
<rect x="302" y="38.8" width="6.0" height="6.5" opacity="1" />
<rect x="308" y="38.8" width="24.0" height="6.5" opacity="0.81" />
<rect x="332" y="38.8" width="6.0" height="6.5" opacity="0.56" />
<rect x="338" y="38.8" width="6.0" height="6.5" opacity="0.37" />
<rect x="74" y="45.4" width="6.0" height="6.5" opacity="0.37" />
<rect x="80" y="45.4" width="6.0" height="6.5" opacity="0.56" />
<rect x="86" y="45.4" width="24.0" height="6.5" opacity="0.81" />
<rect x="110" y="45.4" width="6.0" height="6.5" opacity="1" />
<rect x="116" y="45.4" width="18.0" height="6.5" opacity="0.81" />
<rect x="134" y="45.4" width="18.0" height="6.5" opacity="1" />
<rect x="152" y="45.4" width="12.0" height="6.5" opacity="0.81" />
<rect x="164" y="45.4" width="12.0" height="6.5" opacity="1" />
<rect x="176" y="45.4" width="12.0" height="6.5" opacity="0.81" />
<rect x="188" y="45.4" width="18.0" height="6.5" opacity="1" />
<rect x="206" y="45.4" width="6.0" height="6.5" opacity="0.81" />
<rect x="212" y="45.4" width="6.0" height="6.5" opacity="0.56" />
<rect x="218" y="45.4" width="24.0" height="6.5" opacity="0.81" />
<rect x="242" y="45.4" width="6.0" height="6.5" opacity="0.56" />
<rect x="248" y="45.4" width="18.0" height="6.5" opacity="0.81" />
<rect x="266" y="45.4" width="18.0" height="6.5" opacity="1" />
<rect x="284" y="45.4" width="42.0" height="6.5" opacity="0.81" />
<rect x="326" y="45.4" width="6.0" height="6.5" opacity="1" />
<rect x="332" y="45.4" width="18.0" height="6.5" opacity="0.81" />
<rect x="350" y="45.4" width="6.0" height="6.5" opacity="0.56" />
<rect x="62" y="52.0" width="6.0" height="6.5" opacity="0.37" />
<rect x="68" y="52.0" width="6.0" height="6.5" opacity="0.56" />
<rect x="74" y="52.0" width="42.0" height="6.5" opacity="0.81" />
<rect x="116" y="52.0" width="6.0" height="6.5" opacity="1" />
<rect x="122" y="52.0" width="6.0" height="6.5" opacity="0.81" />
<rect x="128" y="52.0" width="12.0" height="6.5" opacity="1" />
<rect x="140" y="52.0" width="12.0" height="6.5" opacity="0.81" />
<rect x="152" y="52.0" width="18.0" height="6.5" opacity="1" />
<rect x="170" y="52.0" width="12.0" height="6.5" opacity="0.81" />
<rect x="182" y="52.0" width="12.0" height="6.5" opacity="1" />
<rect x="194" y="52.0" width="24.0" height="6.5" opacity="0.81" />
<rect x="218" y="52.0" width="18.0" height="6.5" opacity="1" />
<rect x="236" y="52.0" width="12.0" height="6.5" opacity="0.81" />
<rect x="248" y="52.0" width="18.0" height="6.5" opacity="1" />
<rect x="266" y="52.0" width="6.0" height="6.5" opacity="0.81" />
<rect x="272" y="52.0" width="6.0" height="6.5" opacity="1" />
<rect x="278" y="52.0" width="6.0" height="6.5" opacity="0.81" />
<rect x="284" y="52.0" width="6.0" height="6.5" opacity="1" />
<rect x="290" y="52.0" width="6.0" height="6.5" opacity="0.81" />
<rect x="296" y="52.0" width="6.0" height="6.5" opacity="1" />
<rect x="302" y="52.0" width="24.0" height="6.5" opacity="0.81" />
<rect x="326" y="52.0" width="6.0" height="6.5" opacity="1" />
<rect x="332" y="52.0" width="30.0" height="6.5" opacity="0.81" />
<rect x="362" y="52.0" width="6.0" height="6.5" opacity="0.37" />
<rect x="56" y="58.6" width="6.0" height="6.5" opacity="0.56" />
<rect x="62" y="58.6" width="60.0" height="6.5" opacity="0.81" />
<rect x="122" y="58.6" width="6.0" height="6.5" opacity="1" />
<rect x="128" y="58.6" width="24.0" height="6.5" opacity="0.81" />
<rect x="152" y="58.6" width="6.0" height="6.5" opacity="1" />
<rect x="158" y="58.6" width="6.0" height="6.5" opacity="0.81" />
<rect x="164" y="58.6" width="6.0" height="6.5" opacity="1" />
<rect x="170" y="58.6" width="6.0" height="6.5" opacity="0.81" />
<rect x="176" y="58.6" width="6.0" height="6.5" opacity="1" />
<rect x="182" y="58.6" width="24.0" height="6.5" opacity="0.81" />
<rect x="206" y="58.6" width="30.0" height="6.5" opacity="1" />
<rect x="236" y="58.6" width="12.0" height="6.5" opacity="0.81" />
<rect x="248" y="58.6" width="18.0" height="6.5" opacity="1" />
<rect x="266" y="58.6" width="12.0" height="6.5" opacity="0.81" />
<rect x="278" y="58.6" width="18.0" height="6.5" opacity="1" />
<rect x="296" y="58.6" width="6.0" height="6.5" opacity="0.81" />
<rect x="302" y="58.6" width="18.0" height="6.5" opacity="1" />
<rect x="320" y="58.6" width="48.0" height="6.5" opacity="0.81" />
<rect x="368" y="58.6" width="6.0" height="6.5" opacity="0.56" />
<rect x="374" y="58.6" width="6.0" height="6.5" opacity="0.37" />
<rect x="44" y="65.2" width="6.0" height="6.5" opacity="0.37" />
<rect x="50" y="65.2" width="24.0" height="6.5" opacity="0.81" />
<rect x="74" y="65.2" width="12.0" height="6.5" opacity="0.56" />
<rect x="86" y="65.2" width="6.0" height="6.5" opacity="1" />
<rect x="92" y="65.2" width="30.0" height="6.5" opacity="0.81" />
<rect x="122" y="65.2" width="6.0" height="6.5" opacity="0.56" />
<rect x="128" y="65.2" width="12.0" height="6.5" opacity="1" />
<rect x="140" y="65.2" width="12.0" height="6.5" opacity="0.81" />
<rect x="152" y="65.2" width="18.0" height="6.5" opacity="1" />
<rect x="170" y="65.2" width="12.0" height="6.5" opacity="0.81" />
<rect x="182" y="65.2" width="24.0" height="6.5" opacity="1" />
<rect x="206" y="65.2" width="6.0" height="6.5" opacity="0.81" />
<rect x="212" y="65.2" width="24.0" height="6.5" opacity="1" />
<rect x="236" y="65.2" width="6.0" height="6.5" opacity="0.81" />
<rect x="242" y="65.2" width="30.0" height="6.5" opacity="1" />
<rect x="272" y="65.2" width="18.0" height="6.5" opacity="0.81" />
<rect x="290" y="65.2" width="12.0" height="6.5" opacity="1" />
<rect x="302" y="65.2" width="6.0" height="6.5" opacity="0.81" />
<rect x="308" y="65.2" width="12.0" height="6.5" opacity="1" />
<rect x="320" y="65.2" width="12.0" height="6.5" opacity="0.81" />
<rect x="332" y="65.2" width="6.0" height="6.5" opacity="0.56" />
<rect x="338" y="65.2" width="30.0" height="6.5" opacity="0.81" />
<rect x="368" y="65.2" width="6.0" height="6.5" opacity="1" />
<rect x="374" y="65.2" width="12.0" height="6.5" opacity="0.56" />
<rect x="38" y="71.8" width="6.0" height="6.5" opacity="0.56" />
<rect x="44" y="71.8" width="6.0" height="6.5" opacity="0.81" />
<rect x="50" y="71.8" width="6.0" height="6.5" opacity="1" />
<rect x="56" y="71.8" width="6.0" height="6.5" opacity="0.81" />
<rect x="62" y="71.8" width="6.0" height="6.5" opacity="0.56" />
<rect x="68" y="71.8" width="12.0" height="6.5" opacity="0.81" />
<rect x="80" y="71.8" width="6.0" height="6.5" opacity="1" />
<rect x="86" y="71.8" width="30.0" height="6.5" opacity="0.81" />
<rect x="116" y="71.8" width="12.0" height="6.5" opacity="1" />
<rect x="128" y="71.8" width="12.0" height="6.5" opacity="0.81" />
<rect x="140" y="71.8" width="18.0" height="6.5" opacity="1" />
<rect x="158" y="71.8" width="12.0" height="6.5" opacity="0.81" />
<rect x="170" y="71.8" width="6.0" height="6.5" opacity="1" />
<rect x="176" y="71.8" width="6.0" height="6.5" opacity="0.81" />
<rect x="182" y="71.8" width="6.0" height="6.5" opacity="1" />
<rect x="188" y="71.8" width="12.0" height="6.5" opacity="0.81" />
<rect x="200" y="71.8" width="12.0" height="6.5" opacity="1" />
<rect x="212" y="71.8" width="6.0" height="6.5" opacity="0.81" />
<rect x="218" y="71.8" width="24.0" height="6.5" opacity="1" />
<rect x="242" y="71.8" width="6.0" height="6.5" opacity="0.81" />
<rect x="248" y="71.8" width="12.0" height="6.5" opacity="1" />
<rect x="260" y="71.8" width="6.0" height="6.5" opacity="0.81" />
<rect x="266" y="71.8" width="12.0" height="6.5" opacity="1" />
<rect x="278" y="71.8" width="18.0" height="6.5" opacity="0.81" />
<rect x="296" y="71.8" width="12.0" height="6.5" opacity="1" />
<rect x="308" y="71.8" width="6.0" height="6.5" opacity="0.81" />
<rect x="314" y="71.8" width="24.0" height="6.5" opacity="1" />
<rect x="338" y="71.8" width="6.0" height="6.5" opacity="0.56" />
<rect x="344" y="71.8" width="6.0" height="6.5" opacity="0.81" />
<rect x="350" y="71.8" width="6.0" height="6.5" opacity="1" />
<rect x="356" y="71.8" width="6.0" height="6.5" opacity="0.56" />
<rect x="362" y="71.8" width="18.0" height="6.5" opacity="0.81" />
<rect x="380" y="71.8" width="6.0" height="6.5" opacity="0.56" />
<rect x="386" y="71.8" width="6.0" height="6.5" opacity="0.37" />
<rect x="32" y="78.4" width="12.0" height="6.5" opacity="0.56" />
<rect x="44" y="78.4" width="54.0" height="6.5" opacity="0.81" />
<rect x="98" y="78.4" width="6.0" height="6.5" opacity="0.56" />
<rect x="104" y="78.4" width="6.0" height="6.5" opacity="0.81" />
<rect x="110" y="78.4" width="12.0" height="6.5" opacity="1" />
<rect x="122" y="78.4" width="6.0" height="6.5" opacity="0.81" />
<rect x="128" y="78.4" width="12.0" height="6.5" opacity="1" />
<rect x="140" y="78.4" width="6.0" height="6.5" opacity="0.81" />
<rect x="146" y="78.4" width="12.0" height="6.5" opacity="1" />
<rect x="158" y="78.4" width="24.0" height="6.5" opacity="0.81" />
<rect x="182" y="78.4" width="30.0" height="6.5" opacity="1" />
<rect x="212" y="78.4" width="6.0" height="6.5" opacity="0.81" />
<rect x="218" y="78.4" width="30.0" height="6.5" opacity="1" />
<rect x="248" y="78.4" width="6.0" height="6.5" opacity="0.81" />
<rect x="254" y="78.4" width="12.0" height="6.5" opacity="1" />
<rect x="266" y="78.4" width="6.0" height="6.5" opacity="0.81" />
<rect x="272" y="78.4" width="12.0" height="6.5" opacity="1" />
<rect x="284" y="78.4" width="12.0" height="6.5" opacity="0.81" />
<rect x="296" y="78.4" width="18.0" height="6.5" opacity="1" />
<rect x="314" y="78.4" width="12.0" height="6.5" opacity="0.81" />
<rect x="326" y="78.4" width="12.0" height="6.5" opacity="1" />
<rect x="338" y="78.4" width="12.0" height="6.5" opacity="0.81" />
<rect x="350" y="78.4" width="6.0" height="6.5" opacity="1" />
<rect x="356" y="78.4" width="36.0" height="6.5" opacity="0.81" />
<rect x="392" y="78.4" width="6.0" height="6.5" opacity="0.37" />
<rect x="26" y="85.0" width="6.0" height="6.5" opacity="0.37" />
<rect x="32" y="85.0" width="54.0" height="6.5" opacity="0.81" />
<rect x="86" y="85.0" width="6.0" height="6.5" opacity="1" />
<rect x="92" y="85.0" width="18.0" height="6.5" opacity="0.81" />
<rect x="110" y="85.0" width="18.0" height="6.5" opacity="1" />
<rect x="128" y="85.0" width="6.0" height="6.5" opacity="0.81" />
<rect x="134" y="85.0" width="6.0" height="6.5" opacity="1" />
<rect x="140" y="85.0" width="12.0" height="6.5" opacity="0.81" />
<rect x="152" y="85.0" width="24.0" height="6.5" opacity="1" />
<rect x="176" y="85.0" width="12.0" height="6.5" opacity="0.81" />
<rect x="188" y="85.0" width="30.0" height="6.5" opacity="1" />
<rect x="218" y="85.0" width="6.0" height="6.5" opacity="0.81" />
<rect x="224" y="85.0" width="30.0" height="6.5" opacity="1" />
<rect x="254" y="85.0" width="12.0" height="6.5" opacity="0.81" />
<rect x="266" y="85.0" width="6.0" height="6.5" opacity="1" />
<rect x="272" y="85.0" width="6.0" height="6.5" opacity="0.81" />
<rect x="278" y="85.0" width="12.0" height="6.5" opacity="1" />
<rect x="290" y="85.0" width="12.0" height="6.5" opacity="0.81" />
<rect x="302" y="85.0" width="12.0" height="6.5" opacity="1" />
<rect x="314" y="85.0" width="12.0" height="6.5" opacity="0.81" />
<rect x="326" y="85.0" width="18.0" height="6.5" opacity="1" />
<rect x="344" y="85.0" width="6.0" height="6.5" opacity="0.56" />
<rect x="350" y="85.0" width="12.0" height="6.5" opacity="0.81" />
<rect x="362" y="85.0" width="6.0" height="6.5" opacity="1" />
<rect x="368" y="85.0" width="12.0" height="6.5" opacity="0.56" />
<rect x="380" y="85.0" width="6.0" height="6.5" opacity="0.81" />
<rect x="386" y="85.0" width="12.0" height="6.5" opacity="0.56" />
<rect x="26" y="91.6" width="18.0" height="6.5" opacity="0.81" />
<rect x="44" y="91.6" width="6.0" height="6.5" opacity="0.56" />
<rect x="50" y="91.6" width="6.0" height="6.5" opacity="0.81" />
<rect x="56" y="91.6" width="6.0" height="6.5" opacity="1" />
<rect x="62" y="91.6" width="42.0" height="6.5" opacity="0.81" />
<rect x="104" y="91.6" width="6.0" height="6.5" opacity="1" />
<rect x="110" y="91.6" width="30.0" height="6.5" opacity="0.81" />
<rect x="140" y="91.6" width="42.0" height="6.5" opacity="1" />
<rect x="182" y="91.6" width="12.0" height="6.5" opacity="0.81" />
<rect x="194" y="91.6" width="60.0" height="6.5" opacity="1" />
<rect x="254" y="91.6" width="18.0" height="6.5" opacity="0.81" />
<rect x="272" y="91.6" width="24.0" height="6.5" opacity="1" />
<rect x="296" y="91.6" width="6.0" height="6.5" opacity="0.81" />
<rect x="302" y="91.6" width="6.0" height="6.5" opacity="1" />
<rect x="308" y="91.6" width="18.0" height="6.5" opacity="0.81" />
<rect x="326" y="91.6" width="24.0" height="6.5" opacity="1" />
<rect x="350" y="91.6" width="6.0" height="6.5" opacity="0.56" />
<rect x="356" y="91.6" width="6.0" height="6.5" opacity="1" />
<rect x="362" y="91.6" width="6.0" height="6.5" opacity="0.81" />
<rect x="368" y="91.6" width="6.0" height="6.5" opacity="0.56" />
<rect x="374" y="91.6" width="6.0" height="6.5" opacity="0.81" />
<rect x="380" y="91.6" width="18.0" height="6.5" opacity="0.56" />
<rect x="398" y="91.6" width="6.0" height="6.5" opacity="0.37" />
<rect x="20" y="98.2" width="6.0" height="6.5" opacity="0.37" />
<rect x="26" y="98.2" width="36.0" height="6.5" opacity="0.81" />
<rect x="62" y="98.2" width="6.0" height="6.5" opacity="0.56" />
<rect x="68" y="98.2" width="6.0" height="6.5" opacity="1" />
<rect x="74" y="98.2" width="42.0" height="6.5" opacity="0.81" />
<rect x="116" y="98.2" width="24.0" height="6.5" opacity="1" />
<rect x="140" y="98.2" width="6.0" height="6.5" opacity="0.81" />
<rect x="146" y="98.2" width="84.0" height="6.5" opacity="1" />
<rect x="230" y="98.2" width="6.0" height="6.5" opacity="0.81" />
<rect x="236" y="98.2" width="12.0" height="6.5" opacity="1" />
<rect x="248" y="98.2" width="12.0" height="6.5" opacity="0.81" />
<rect x="260" y="98.2" width="12.0" height="6.5" opacity="1" />
<rect x="272" y="98.2" width="48.0" height="6.5" opacity="0.81" />
<rect x="320" y="98.2" width="6.0" height="6.5" opacity="1" />
<rect x="326" y="98.2" width="6.0" height="6.5" opacity="0.81" />
<rect x="332" y="98.2" width="18.0" height="6.5" opacity="1" />
<rect x="350" y="98.2" width="6.0" height="6.5" opacity="0.81" />
<rect x="356" y="98.2" width="6.0" height="6.5" opacity="1" />
<rect x="362" y="98.2" width="18.0" height="6.5" opacity="0.81" />
<rect x="380" y="98.2" width="6.0" height="6.5" opacity="1" />
<rect x="386" y="98.2" width="6.0" height="6.5" opacity="0.81" />
<rect x="392" y="98.2" width="12.0" height="6.5" opacity="0.56" />
<rect x="20" y="104.8" width="60.0" height="6.5" opacity="0.81" />
<rect x="80" y="104.8" width="48.0" height="6.5" opacity="1" />
<rect x="128" y="104.8" width="6.0" height="6.5" opacity="0.81" />
<rect x="134" y="104.8" width="6.0" height="6.5" opacity="1" />
<rect x="140" y="104.8" width="6.0" height="6.5" opacity="0.81" />
<rect x="146" y="104.8" width="18.0" height="6.5" opacity="1" />
<rect x="164" y="104.8" width="12.0" height="6.5" opacity="0.81" />
<rect x="176" y="104.8" width="18.0" height="6.5" opacity="1" />
<rect x="194" y="104.8" width="12.0" height="6.5" opacity="0.81" />
<rect x="206" y="104.8" width="18.0" height="6.5" opacity="1" />
<rect x="224" y="104.8" width="72.0" height="6.5" opacity="0.81" />
<rect x="296" y="104.8" width="30.0" height="6.5" opacity="1" />
<rect x="326" y="104.8" width="30.0" height="6.5" opacity="0.81" />
<rect x="356" y="104.8" width="18.0" height="6.5" opacity="1" />
<rect x="374" y="104.8" width="30.0" height="6.5" opacity="0.81" />
<rect x="20" y="111.4" width="6.0" height="6.5" opacity="0.56" />
<rect x="26" y="111.4" width="18.0" height="6.5" opacity="0.81" />
<rect x="44" y="111.4" width="6.0" height="6.5" opacity="0.56" />
<rect x="50" y="111.4" width="6.0" height="6.5" opacity="0.81" />
<rect x="56" y="111.4" width="6.0" height="6.5" opacity="1" />
<rect x="62" y="111.4" width="12.0" height="6.5" opacity="0.81" />
<rect x="74" y="111.4" width="30.0" height="6.5" opacity="1" />
<rect x="104" y="111.4" width="6.0" height="6.5" opacity="0.81" />
<rect x="110" y="111.4" width="30.0" height="6.5" opacity="1" />
<rect x="140" y="111.4" width="18.0" height="6.5" opacity="0.81" />
<rect x="158" y="111.4" width="6.0" height="6.5" opacity="1" />
<rect x="164" y="111.4" width="18.0" height="6.5" opacity="0.81" />
<rect x="182" y="111.4" width="36.0" height="6.5" opacity="1" />
<rect x="218" y="111.4" width="12.0" height="6.5" opacity="0.81" />
<rect x="230" y="111.4" width="6.0" height="6.5" opacity="1" />
<rect x="236" y="111.4" width="30.0" height="6.5" opacity="0.81" />
<rect x="266" y="111.4" width="24.0" height="6.5" opacity="1" />
<rect x="290" y="111.4" width="6.0" height="6.5" opacity="0.81" />
<rect x="296" y="111.4" width="24.0" height="6.5" opacity="1" />
<rect x="320" y="111.4" width="18.0" height="6.5" opacity="0.81" />
<rect x="338" y="111.4" width="24.0" height="6.5" opacity="1" />
<rect x="362" y="111.4" width="6.0" height="6.5" opacity="0.81" />
<rect x="368" y="111.4" width="6.0" height="6.5" opacity="0.56" />
<rect x="374" y="111.4" width="24.0" height="6.5" opacity="0.81" />
<rect x="398" y="111.4" width="6.0" height="6.5" opacity="0.37" />
<rect x="20" y="118.0" width="6.0" height="6.5" opacity="0.56" />
<rect x="26" y="118.0" width="24.0" height="6.5" opacity="0.81" />
<rect x="50" y="118.0" width="6.0" height="6.5" opacity="1" />
<rect x="56" y="118.0" width="12.0" height="6.5" opacity="0.81" />
<rect x="68" y="118.0" width="6.0" height="6.5" opacity="1" />
<rect x="74" y="118.0" width="18.0" height="6.5" opacity="0.81" />
<rect x="92" y="118.0" width="36.0" height="6.5" opacity="1" />
<rect x="128" y="118.0" width="12.0" height="6.5" opacity="0.81" />
<rect x="140" y="118.0" width="12.0" height="6.5" opacity="1" />
<rect x="152" y="118.0" width="24.0" height="6.5" opacity="0.81" />
<rect x="176" y="118.0" width="6.0" height="6.5" opacity="1" />
<rect x="182" y="118.0" width="6.0" height="6.5" opacity="0.81" />
<rect x="188" y="118.0" width="6.0" height="6.5" opacity="1" />
<rect x="194" y="118.0" width="42.0" height="6.5" opacity="0.81" />
<rect x="236" y="118.0" width="60.0" height="6.5" opacity="1" />
<rect x="296" y="118.0" width="30.0" height="6.5" opacity="0.81" />
<rect x="326" y="118.0" width="6.0" height="6.5" opacity="1" />
<rect x="332" y="118.0" width="12.0" height="6.5" opacity="0.81" />
<rect x="344" y="118.0" width="6.0" height="6.5" opacity="0.56" />
<rect x="350" y="118.0" width="48.0" height="6.5" opacity="0.81" />
<rect x="398" y="118.0" width="6.0" height="6.5" opacity="0.37" />
<rect x="20" y="124.6" width="6.0" height="6.5" opacity="0.37" />
<rect x="26" y="124.6" width="6.0" height="6.5" opacity="0.56" />
<rect x="32" y="124.6" width="36.0" height="6.5" opacity="0.81" />
<rect x="68" y="124.6" width="6.0" height="6.5" opacity="1" />
<rect x="74" y="124.6" width="6.0" height="6.5" opacity="0.81" />
<rect x="80" y="124.6" width="6.0" height="6.5" opacity="1" />
<rect x="86" y="124.6" width="60.0" height="6.5" opacity="0.81" />
<rect x="146" y="124.6" width="30.0" height="6.5" opacity="1" />
<rect x="176" y="124.6" width="42.0" height="6.5" opacity="0.81" />
<rect x="218" y="124.6" width="6.0" height="6.5" opacity="1" />
<rect x="224" y="124.6" width="6.0" height="6.5" opacity="0.81" />
<rect x="230" y="124.6" width="42.0" height="6.5" opacity="1" />
<rect x="272" y="124.6" width="36.0" height="6.5" opacity="0.81" />
<rect x="308" y="124.6" width="6.0" height="6.5" opacity="1" />
<rect x="314" y="124.6" width="30.0" height="6.5" opacity="0.81" />
<rect x="344" y="124.6" width="6.0" height="6.5" opacity="1" />
<rect x="350" y="124.6" width="12.0" height="6.5" opacity="0.81" />
<rect x="362" y="124.6" width="6.0" height="6.5" opacity="1" />
<rect x="368" y="124.6" width="18.0" height="6.5" opacity="0.81" />
<rect x="386" y="124.6" width="6.0" height="6.5" opacity="0.56" />
<rect x="392" y="124.6" width="6.0" height="6.5" opacity="0.37" />
<rect x="32" y="131.2" width="12.0" height="6.5" opacity="0.56" />
<rect x="44" y="131.2" width="30.0" height="6.5" opacity="0.81" />
<rect x="74" y="131.2" width="6.0" height="6.5" opacity="1" />
<rect x="80" y="131.2" width="24.0" height="6.5" opacity="0.81" />
<rect x="104" y="131.2" width="6.0" height="6.5" opacity="1" />
<rect x="110" y="131.2" width="78.0" height="6.5" opacity="0.81" />
<rect x="188" y="131.2" width="66.0" height="6.5" opacity="1" />
<rect x="254" y="131.2" width="6.0" height="6.5" opacity="0.81" />
<rect x="260" y="131.2" width="30.0" height="6.5" opacity="1" />
<rect x="290" y="131.2" width="42.0" height="6.5" opacity="0.81" />
<rect x="332" y="131.2" width="6.0" height="6.5" opacity="1" />
<rect x="338" y="131.2" width="12.0" height="6.5" opacity="0.81" />
<rect x="350" y="131.2" width="36.0" height="6.5" opacity="0.56" />
<rect x="386" y="131.2" width="6.0" height="6.5" opacity="0.37" />
<rect x="44" y="137.8" width="6.0" height="6.5" opacity="0.37" />
<rect x="50" y="137.8" width="6.0" height="6.5" opacity="0.56" />
<rect x="56" y="137.8" width="24.0" height="6.5" opacity="0.81" />
<rect x="80" y="137.8" width="6.0" height="6.5" opacity="0.56" />
<rect x="86" y="137.8" width="48.0" height="6.5" opacity="0.81" />
<rect x="134" y="137.8" width="6.0" height="6.5" opacity="1" />
<rect x="140" y="137.8" width="12.0" height="6.5" opacity="0.81" />
<rect x="152" y="137.8" width="6.0" height="6.5" opacity="0.56" />
<rect x="158" y="137.8" width="24.0" height="6.5" opacity="0.81" />
<rect x="182" y="137.8" width="48.0" height="6.5" opacity="1" />
<rect x="230" y="137.8" width="6.0" height="6.5" opacity="0.81" />
<rect x="236" y="137.8" width="36.0" height="6.5" opacity="1" />
<rect x="272" y="137.8" width="18.0" height="6.5" opacity="0.81" />
<rect x="290" y="137.8" width="6.0" height="6.5" opacity="0.56" />
<rect x="296" y="137.8" width="12.0" height="6.5" opacity="0.81" />
<rect x="308" y="137.8" width="12.0" height="6.5" opacity="1" />
<rect x="320" y="137.8" width="18.0" height="6.5" opacity="0.81" />
<rect x="338" y="137.8" width="12.0" height="6.5" opacity="0.56" />
<rect x="350" y="137.8" width="18.0" height="6.5" opacity="0.81" />
<rect x="368" y="137.8" width="18.0" height="6.5" opacity="0.56" />
<rect x="386" y="137.8" width="6.0" height="6.5" opacity="0.37" />
<rect x="56" y="144.4" width="6.0" height="6.5" opacity="0.37" />
<rect x="62" y="144.4" width="12.0" height="6.5" opacity="0.56" />
<rect x="74" y="144.4" width="36.0" height="6.5" opacity="0.81" />
<rect x="110" y="144.4" width="12.0" height="6.5" opacity="0.56" />
<rect x="122" y="144.4" width="18.0" height="6.5" opacity="0.37" />
<rect x="140" y="144.4" width="6.0" height="6.5" opacity="0.56" />
<rect x="146" y="144.4" width="6.0" height="6.5" opacity="0.81" />
<rect x="152" y="144.4" width="12.0" height="6.5" opacity="1" />
<rect x="164" y="144.4" width="60.0" height="6.5" opacity="0.81" />
<rect x="224" y="144.4" width="6.0" height="6.5" opacity="1" />
<rect x="230" y="144.4" width="6.0" height="6.5" opacity="0.81" />
<rect x="236" y="144.4" width="12.0" height="6.5" opacity="1" />
<rect x="248" y="144.4" width="24.0" height="6.5" opacity="0.81" />
<rect x="272" y="144.4" width="18.0" height="6.5" opacity="1" />
<rect x="290" y="144.4" width="12.0" height="6.5" opacity="0.81" />
<rect x="302" y="144.4" width="12.0" height="6.5" opacity="1" />
<rect x="314" y="144.4" width="42.0" height="6.5" opacity="0.81" />
<rect x="356" y="144.4" width="6.0" height="6.5" opacity="0.56" />
<rect x="362" y="144.4" width="18.0" height="6.5" opacity="0.81" />
<rect x="380" y="144.4" width="6.0" height="6.5" opacity="0.56" />
<rect x="386" y="144.4" width="6.0" height="6.5" opacity="0.37" />
<rect x="134" y="151.0" width="6.0" height="6.5" opacity="0.37" />
<rect x="140" y="151.0" width="6.0" height="6.5" opacity="0.56" />
<rect x="146" y="151.0" width="6.0" height="6.5" opacity="0.81" />
<rect x="152" y="151.0" width="18.0" height="6.5" opacity="1" />
<rect x="170" y="151.0" width="12.0" height="6.5" opacity="0.81" />
<rect x="182" y="151.0" width="6.0" height="6.5" opacity="1" />
<rect x="188" y="151.0" width="30.0" height="6.5" opacity="0.81" />
<rect x="218" y="151.0" width="6.0" height="6.5" opacity="1" />
<rect x="224" y="151.0" width="24.0" height="6.5" opacity="0.81" />
<rect x="248" y="151.0" width="30.0" height="6.5" opacity="1" />
<rect x="278" y="151.0" width="42.0" height="6.5" opacity="0.81" />
<rect x="320" y="151.0" width="6.0" height="6.5" opacity="1" />
<rect x="326" y="151.0" width="6.0" height="6.5" opacity="0.81" />
<rect x="332" y="151.0" width="18.0" height="6.5" opacity="1" />
<rect x="350" y="151.0" width="24.0" height="6.5" opacity="0.81" />
<rect x="374" y="151.0" width="6.0" height="6.5" opacity="0.56" />
<rect x="380" y="151.0" width="6.0" height="6.5" opacity="0.37" />
<rect x="140" y="157.6" width="6.0" height="6.5" opacity="0.37" />
<rect x="146" y="157.6" width="6.0" height="6.5" opacity="0.56" />
<rect x="152" y="157.6" width="30.0" height="6.5" opacity="0.81" />
<rect x="182" y="157.6" width="18.0" height="6.5" opacity="1" />
<rect x="200" y="157.6" width="24.0" height="6.5" opacity="0.81" />
<rect x="224" y="157.6" width="6.0" height="6.5" opacity="1" />
<rect x="230" y="157.6" width="12.0" height="6.5" opacity="0.81" />
<rect x="242" y="157.6" width="6.0" height="6.5" opacity="1" />
<rect x="248" y="157.6" width="24.0" height="6.5" opacity="0.81" />
<rect x="272" y="157.6" width="6.0" height="6.5" opacity="0.56" />
<rect x="278" y="157.6" width="66.0" height="6.5" opacity="0.81" />
<rect x="344" y="157.6" width="6.0" height="6.5" opacity="1" />
<rect x="350" y="157.6" width="18.0" height="6.5" opacity="0.81" />
<rect x="368" y="157.6" width="6.0" height="6.5" opacity="0.56" />
<rect x="374" y="157.6" width="6.0" height="6.5" opacity="0.37" />
<rect x="146" y="164.2" width="12.0" height="6.5" opacity="0.37" />
<rect x="158" y="164.2" width="6.0" height="6.5" opacity="0.56" />
<rect x="164" y="164.2" width="42.0" height="6.5" opacity="0.81" />
<rect x="206" y="164.2" width="6.0" height="6.5" opacity="1" />
<rect x="212" y="164.2" width="6.0" height="6.5" opacity="0.81" />
<rect x="218" y="164.2" width="6.0" height="6.5" opacity="1" />
<rect x="224" y="164.2" width="24.0" height="6.5" opacity="0.81" />
<rect x="248" y="164.2" width="12.0" height="6.5" opacity="1" />
<rect x="260" y="164.2" width="18.0" height="6.5" opacity="0.81" />
<rect x="278" y="164.2" width="6.0" height="6.5" opacity="0.37" />
<rect x="284" y="164.2" width="24.0" height="6.5" opacity="0.81" />
<rect x="308" y="164.2" width="6.0" height="6.5" opacity="1" />
<rect x="314" y="164.2" width="30.0" height="6.5" opacity="0.81" />
<rect x="344" y="164.2" width="6.0" height="6.5" opacity="0.56" />
<rect x="350" y="164.2" width="12.0" height="6.5" opacity="0.81" />
<rect x="362" y="164.2" width="6.0" height="6.5" opacity="0.37" />
<rect x="164" y="170.8" width="12.0" height="6.5" opacity="0.37" />
<rect x="176" y="170.8" width="30.0" height="6.5" opacity="0.56" />
<rect x="206" y="170.8" width="18.0" height="6.5" opacity="0.37" />
<rect x="236" y="170.8" width="6.0" height="6.5" opacity="0.37" />
<rect x="242" y="170.8" width="6.0" height="6.5" opacity="0.81" />
<rect x="248" y="170.8" width="6.0" height="6.5" opacity="0.56" />
<rect x="254" y="170.8" width="6.0" height="6.5" opacity="1" />
<rect x="260" y="170.8" width="12.0" height="6.5" opacity="0.81" />
<rect x="272" y="170.8" width="6.0" height="6.5" opacity="0.56" />
<rect x="290" y="170.8" width="12.0" height="6.5" opacity="0.37" />
<rect x="302" y="170.8" width="36.0" height="6.5" opacity="0.56" />
<rect x="338" y="170.8" width="12.0" height="6.5" opacity="0.37" />
<rect x="242" y="177.4" width="12.0" height="6.5" opacity="0.37" />
<rect x="254" y="177.4" width="6.0" height="6.5" opacity="0.56" />
<rect x="260" y="177.4" width="18.0" height="6.5" opacity="0.81" />
<rect x="278" y="177.4" width="6.0" height="6.5" opacity="0.37" />
<rect x="260" y="184.0" width="6.0" height="6.5" opacity="0.56" />
<rect x="266" y="184.0" width="6.0" height="6.5" opacity="1" />
<rect x="272" y="184.0" width="12.0" height="6.5" opacity="0.81" />
<rect x="260" y="190.6" width="6.0" height="6.5" opacity="0.37" />
<rect x="266" y="190.6" width="6.0" height="6.5" opacity="0.56" />
<rect x="272" y="190.6" width="6.0" height="6.5" opacity="0.81" />
<rect x="278" y="190.6" width="6.0" height="6.5" opacity="0.56" />
</g>
<line x1="432" y1="43" x2="432" y2="184" stroke="#334a63"/>
<text x="460" y="95" fill="#f0f9ff" font-family="DejaVu Sans,Arial,sans-serif" font-weight="700" font-size="48" letter-spacing="-1">SemantIQ</text>
<text x="462" y="124" fill="#67e8f9" font-family="DejaVu Sans,Arial,sans-serif" font-size="13" letter-spacing="2">OPEN-SOURCE · PUBLIC ALPHA</text>
<text x="462" y="153" fill="#cbd5e1" font-family="DejaVu Sans,Arial,sans-serif" font-size="15">Behavioral Evidence</text>
<text x="462" y="175" fill="#cbd5e1" font-family="DejaVu Sans,Arial,sans-serif" font-size="15">Infrastructure for AI Systems</text>
</svg>
